# xmcd
#
# Track frame offsets:
#	183
#	12960
#	32520
#	46805
#	58720
#	70618
#	78938
#	91845
#	105568
#	115593
#	128220
#	139505
#	150750
#	161740
#	180655
#	194055
#
# Disc length: 2727
#
# Revision: 2
# Processed by: cddbd v1.5.1PL0 Copyright (c) Steve Scherf et al.
# Submitted via: ExactAudioCopy v0.90b4
# Normalized: r1:DSETVAR1,TDELIM( - )
#
DISCID=be0aa510
DTITLE=Various Artist - 16 All Time Blues Hits - CD 2
DYEAR=1991
DGENRE=Blues
TTITLE0=Waters, Muddy - (I'm Your) Hootchie Coochie Man
TTITLE1=Mayall, John - Reaching For A Mountain
TTITLE2=Howlin' Wolf - I Walked From Dallas
TTITLE3=Hooker, John Lee - Crawling King Snake
TTITLE4=King, B. B. - Dark Is The Night - Part 1
TTITLE5=Watson - Johnny Guitar - Looking Back
TTITLE6=Little Walter - Everybody Needs Somebody
TTITLE7=Beck, Jeff - Jeff's Blues
TTITLE8=Hooker, John Lee - Dimples
TTITLE9=Howlin' Wolf - Back Door Man
TTITLE10=Williamson, Sonny Boy - Bring It On Home
TTITLE11=Waters, Muddy - Crawlin' Kingsnake
TTITLE12=Williams, Big Joe - Sinking Blues
TTITLE13=Bloomfield, Mike - Eyesight To The Blind
TTITLE14=Little Walter - Can't Hold Out Much Longer
TTITLE15=James, Elmore - Can't Stop Lovin'
EXTD=All Tim Music\nATM 071\n\n10 CD-Set Blues Sampler
EXTT0=
EXTT1=
EXTT2=
EXTT3=
EXTT4=
EXTT5=
EXTT6=
EXTT7=
EXTT8=
EXTT9=
EXTT10=
EXTT11=
EXTT12=
EXTT13=
EXTT14=
EXTT15=
PLAYORDER=
